<?xml version="1.0" encoding="utf-8"?>
<!-- Generator: Adobe Illustrator 24.2.3, SVG Export Plug-In . SVG Version: 6.00 Build 0)  -->
<svg version="1.1" id="圖層_1" xmlns="http://www.w3.org/2000/svg" xmlns:xlink="http://www.w3.org/1999/xlink" x="0px" y="0px"
	 viewBox="0 0 219 619" style="enable-background:new 0 0 219 619;" xml:space="preserve">
<style type="text/css">
	.st0{fill:#FFFFFF;}
	.st1{fill-rule:evenodd;clip-rule:evenodd;fill:#FFFFFF;}
</style>
<g>
	<g>
		<g>
			<path class="st0" d="M122.3,183c0-1.2-0.4-2.4-1.1-3.1c-0.8-0.8-1.9-1.2-3.1-1.2H86.8c-0.9,0-1.8,0.4-2.6,1.1
				c-0.8,0.8-1.3,1.9-1.3,2.9v8.3c0,1.3,0.5,2.5,1.3,3.3c0.8,0.7,1.9,1.2,2.9,1.2h31.1c1.1,0,2.2-0.5,3-1.3c0.7-0.7,1.1-1.6,1.1-2.7
				V183z M117.5,190.5c0,0.9-0.6,1.4-1.4,1.4H88.9c-0.7,0-1.4-0.5-1.4-1.3v-6.8c0-0.9,0.6-1.5,1.5-1.5h27.2c0.8,0,1.4,0.6,1.4,1.4
				L117.5,190.5L117.5,190.5z"/>
			<path class="st0" d="M78,176.4h12.8c4.2-1.4,8.1-3.2,11.9-5l0.1-0.1l0.1,0.1c2.8,1.4,7.3,3.5,11.1,5h12.5
				c-7.1-2.4-13.8-4.7-18.8-7.2l-0.4-0.2l0.4-0.2c3-1.8,7.1-4.7,9.6-7.1c0.9-0.9,1.2-2.2,0.7-3.3c-0.4-1-1.3-1.6-2.3-1.6H99.4
				l0.4-0.4c0.2-0.2,0.4-0.5,0.7-0.8c0.4-0.5,0.9-1,1.3-1.4H95c-4.4,4.5-9.8,8.5-15.8,11.5h8.9c1.3-0.8,2.2-1.4,2.8-1.8l0.2-0.1
				l0.2,0.1c1.9,1.6,4.4,3.3,6.6,4.8l0.4,0.2l-0.4,0.2C91.7,172,84.8,174.2,78,176.4z M97.3,162.7h-5.1l0.8-0.5
				c0.7-0.4,1.6-1.2,2.1-1.7l0.1-0.1h16.6l-0.6,0.4c-2.7,2.1-5.5,3.9-8.1,5.4l-0.1,0.1l-0.1-0.1C100.6,165.2,98.9,164,97.3,162.7z"
				/>
			<path class="st0" d="M78.2,159.2h4.6v-5.1c0-0.9,0.7-1.6,1.6-1.6h36.2c0.8,0,1.4,0.7,1.4,1.6v5.2h4.8V153c0-1-0.3-2-1-2.8
				c-0.7-0.9-1.8-1.5-3-1.5h-16.6l-0.1-0.1c-0.8-1.4-1.6-3.1-2-4.3h-5.4c0.5,1.1,1.2,2.7,1.7,3.8l0.3,0.6h-18
				c-1.5,0-2.5,0.7-3.1,1.2c-0.9,0.8-1.4,2.1-1.4,3.3V159.2z"/>
		</g>
	</g>
	<g>
		<g>
			<path class="st0" d="M78.7,217.8h5.1v-7.1c0-1,0.7-1.7,1.7-1.7h35.9c0.9,0,1.5,0.9,1.5,1.7v7.1h5.1v-7.2c0-1.4-0.4-2.7-1-3.6
				c-0.8-1.1-1.9-1.6-3.3-1.6h-16.5l-0.1-0.1c-1.2-1.8-2.1-3.2-2.6-4.3h-5.9c0.7,1.3,1.4,2.7,2.1,4l0.2,0.4H84
				c-1.6,0-2.9,0.5-3.9,1.4c-0.9,0.9-1.4,2.2-1.4,3.8V217.8z"/>
			<path class="st0" d="M108.7,227c0-1.6-0.4-2.8-1.2-3.7c-0.9-1-2.2-1.5-3.8-1.5h-5.8l0.5-0.4c0.7-0.6,3.2-2.8,4.4-4.2l0.1-0.1
				h16.7v-3.7H87.1v3.7h9.1l-0.5,0.4c-4.3,3.8-9.4,7.1-15.9,10.3h9.9c1-0.6,2.5-1.6,3.2-2.3l0.1-0.1h9c1.1,0,1.7,1,1.7,2V247
				c0,1.1-0.7,1.8-1.8,1.8h-6.1l2.1,3.6h5.3c1.6,0,2.9-0.4,3.8-1.1c1-0.9,1.6-2.1,1.6-3.5V227H108.7z"/>
			<path class="st0" d="M100.8,228.3h-6.7c-4.5,4.9-10.2,8-15.8,10.6h9.8C93,235.8,97.3,232.2,100.8,228.3z"/>
			<path class="st0" d="M129.9,249.9c-5.3-5.1-8.4-10.7-10.7-15.6l-0.1-0.1l0.1-0.1c3-3.6,5.7-7.6,8.3-12.7h-5.6
				c-1.4,2.7-3,5.4-4.6,7.6l-0.3,0.4l-0.2-0.4c-0.8-1.9-1.3-3.4-1.7-4.8H110c3.1,9.9,7.3,18.3,13,25.7L129.9,249.9L129.9,249.9z"/>
			<path class="st0" d="M103.3,236.8l0.3-0.3h-6.7c-5.2,5.4-11.4,9.8-18.9,13.5h9.2C94.1,246.1,99.4,240.9,103.3,236.8z"/>
		</g>
	</g>
	<path class="st0" d="M101.6,297.9l0.2,0.2c4.2,4.3,8.8,7.5,14.4,11.1h9.5c-8.1-4.3-14.8-8.4-20.7-14.4l-0.2-0.2l0.2-0.2
		c5.7-6.4,9.9-14.4,12.8-24.5v-0.2h6.9v-3.6h-19.3l-0.1-0.1c-1.4-2.2-3-5.8-3.6-8.1h-5.1c0.7,2.2,2.4,5.9,3.3,7.9l0.2,0.3H78.2v3.6
		h7l0.1,0.2c3.2,9.8,7.5,17.9,13.1,24.5l0.1,0.2l-0.2,0.2c-6,6-12.8,10.1-20.4,14.4H87c5.5-3.6,10.2-7.3,14.3-11.1L101.6,297.9z
		 M90.2,270.1l-0.1-0.3h23.2l-0.1,0.3c-2.3,7.6-6.4,15.2-11.3,20.9l-0.2,0.2l-0.2-0.2C96.6,285.3,92.7,278.1,90.2,270.1z"/>
	<g>
		<g>
			<path class="st0" d="M107.2,362.5c-1.1,0-1.9-0.9-1.9-2.1v-17.3h5.8c7-7.5,11.6-16.2,14.7-23h-5.4c-3.6,7.2-7.8,14.9-14.7,21.6
				l-0.4,0.4v-27.5h-4.8v45.7c0,1.7,0.5,3.2,1.4,4.3c0.9,1.1,2.2,1.7,3.8,1.7h20.4l1.4-3.8L107.2,362.5L107.2,362.5z"/>
			<path class="st0" d="M78,333.4h5.5v32.9h4.6V332h-2.7l0.3-0.4c3.7-5.2,7.2-11,10-17h-5.5C88.8,317.5,84.3,326.7,78,333.4z"/>
		</g>
	</g>
	<g>
		<g>
			<path class="st0" d="M94.7,422.8c1.2,0,2.3-0.6,3.1-1.6c0.8-0.9,1.2-2.1,1.2-3.3v-6c0-1.5-0.4-2.9-1.3-3.8
				c-0.8-0.8-1.9-1.3-3.1-1.3h-9.7c-0.3,0-0.6-0.1-0.8-0.4c-0.2-0.2-0.3-0.5-0.3-0.9L84,403c0.1-0.9,0.7-1.8,1.5-1.8h8.4
				c1.1,0,2.1-0.4,2.8-1.1c0.8-0.8,1.2-1.6,1.2-2.7v-3.3c0-1.4-0.4-2.5-1.1-3.4c-0.7-0.8-1.8-1.3-3-1.3H88l0.7-0.5
				c5.3-3.4,8.5-6.2,11.6-10.3c1-1.3,1.2-3.1,0.4-4.4c-0.7-1.2-2-1.9-3.5-1.9H81.5v3.3h14c0.2,0,0.4,0.1,0.5,0.3
				c0.1,0.2,0.1,0.5,0,0.8c-1.3,2.3-3.5,4.2-5.2,5.6l-0.2,0.1l-0.2-0.1c-1.4-1.3-2.9-2.7-4.1-4.2h-5.8c2,2.4,4.3,4.7,6.7,6.5
				l0.3,0.2l-0.3,0.2c-3,2.2-6,4-9.2,5.6l0,0v2.1h13.9c0.9,0,1.8,0.8,1.8,1.7v1.6c0,1-0.8,1.7-1.5,1.7h-8.6c-1,0-1.8,0.3-2.5,0.9
				s-1.1,1.6-1.2,2.7l-0.5,4.4c-0.2,1.1,0.2,2.2,0.9,3c0.6,0.7,1.4,1.1,2.2,1.1H93c0.9,0,1.6,0.8,1.6,1.7v6.1c0,0.8-0.9,1.5-1.6,1.5
				H80.1l1.7,3.3h12.9V422.8z"/>
			<path class="st0" d="M112.4,419.5l0.1,0.1c1.2,0.9,3.2,2.3,4.5,3.3h8.9c-3.9-1.9-7.2-3.9-9.9-5.9l-0.2-0.2l0.2-0.2
				c2.7-2.5,5.3-4.9,7.2-7.5c0.8-1.1,0.9-2.4,0.4-3.4c-0.4-0.9-1.4-1.4-2.6-1.4h-19.5v3.4h16.2c0.3,0,0.5,0.1,0.6,0.3
				c0.1,0.2,0.1,0.5-0.1,0.8c-1.8,2.2-3.8,3.9-5.6,5.3l-0.1,0.1l-0.2-0.1c-1.4-1.1-2.8-2.3-4-3.9h-5.6c1.8,2.4,4.4,4.7,6.3,6.3
				l0.2,0.2l-0.3,0.2c-3,2.1-6.1,4-9.7,5.9h8.3C109.1,421.8,110.7,420.7,112.4,419.5L112.4,419.5z"/>
			<path class="st0" d="M109.3,377.3l-0.2-0.2c-1.2-1.6-2.5-4.4-3-5.4h-4.9c3.1,7.2,8.7,14.1,14.4,17.5l0.8,0.5h-8.6
				c-1,0-1.9,0.3-2.6,0.9c-0.9,0.7-1.4,1.7-1.4,2.8c-0.1,3.8-1.5,6.8-3.9,8.3h5.5c1.7-1.7,2.5-4.7,2.5-6.8c0-0.8,0.7-1.8,1.5-1.8
				h4.6c0.8,0,1.5,0.7,1.5,1.6v2.8c0,1.2,0.4,2.2,1.1,3c0.6,0.6,1.5,0.9,2.6,0.9h5.1l1.7-3.3h-5c-0.5,0-1.1-0.6-1.1-1.2v-3.2
				c0-1-0.3-1.8-0.7-2.3l-0.3-0.4h7.4c-2.6-1.4-6.2-3.7-8.8-5.6l-0.2-0.2l0.2-0.2c2.4-2.1,4.7-4.8,6.8-7.9h-4.8
				c-1.5,2.2-3.2,4.2-4.9,5.6l-0.2,0.1l-0.2-0.1c-0.6-0.5-1.7-1.7-2.4-2.4l-0.2-0.2l0.2-0.2c2.3-2.5,4.5-4.9,6-7.6h-4.6
				c-1.2,2-2.4,3.5-3.7,4.7L109.3,377.3z"/>
		</g>
	</g>
	<g>
		<g>
			<path class="st0" d="M119.5,479.4h9.4c-4.4-2.2-8.3-4.8-11.7-7.7l-0.2-0.2l0.2-0.2c2.8-2.2,6-4.9,8.7-8H119
				c-1.4,1.8-3.2,3.3-5.1,4.8l-0.2,0.1l-0.2-0.2c-2-2-4.1-5.8-4.5-6.5l-0.2-0.4h19.6v-3.4h-10.3v-6.6h7.6v-3.3h-7.6v-4.5h-4.6v4.5
				h-10.9v-4.5h-4.7v4.5H90v3.3h7.9v6.6h-9.3v3.4h3.9v13.7c0,1.5,0.5,2.7,1.4,3.5c0.7,0.6,1.7,1,2.7,1h7.9l1.7-3.4h-7.7
				c-0.8,0-1.4-0.7-1.4-1.6v-13.2h6.7l0.1,0.2C106.7,469.3,114,475.5,119.5,479.4z M102.6,457.8v-6.6h10.9v6.6H102.6z"/>
			<path class="st0" d="M85.9,441.4h35.4c1.2,0,2.3-0.5,3.1-1.3c0.8-0.8,1.3-1.8,1.3-3v-4.2c0-1.2-0.4-2.3-1.3-3
				c-0.8-0.7-1.9-1.1-3.2-1.1H86.5c-1.6,0-3,0.4-3.8,1.1c-1,0.8-1.5,2-1.5,3.5v23c0,7.3-0.4,15.7-3.2,23.1h5.1
				c2.5-8.2,2.8-15.7,2.8-20.6V441.4z M85.9,433.7c0-0.9,0.7-1.6,1.5-1.6h31.9c0.8,0,1.4,0.8,1.4,1.5v2.8c0,0.7-0.6,1.5-1.5,1.5
				H85.9V433.7z"/>
		</g>
	</g>
	<path class="st0" d="M124.4,500.8c0-1.4-0.4-2.6-1.2-3.6c-1-1.1-2.3-1.7-3.9-1.7h-15.8v-10.2h-4.8v10.2H83.3
		c-1.4,0-2.7,0.4-3.7,1.2c-1.1,0.9-1.7,2.2-1.7,3.7v17.3c0,1.1,0.4,2.2,1.1,3.1c0.6,0.7,1.7,1.6,3.3,1.6h16.3v14.2h4.8v-14.2H119
		c1.6,0,3-0.6,4-1.6c0.8-0.9,1.2-2.2,1.2-3.6v-16.4H124.4z M98.7,518.5h-14c-1.1,0-1.7-0.7-1.7-1.8v-15.5c0-1,0.9-2,1.9-2h13.9v19.3
		H98.7z M119.4,516.8c0,1.1-0.8,1.7-1.6,1.7h-14.3v-19.3h14.2c0.9,0,1.7,0.9,1.7,1.9C119.4,501.1,119.4,516.8,119.4,516.8z"/>
	<g>
		<g>
			<path class="st0" d="M99,588.8c-1.3,0-2.1-0.8-2.1-2v-36H92v35.8c0,1.8,0.5,3.3,1.4,4.3c1,1.1,2.3,1.6,4.2,1.6H118l1.7-3.6
				L99,588.8L99,588.8z"/>
			<path class="st0" d="M100.8,543c1.6,7.4,4.9,19.1,7.4,25.5h5c-3.3-7.2-6.1-17.9-7.7-25.5H100.8z"/>
			<path class="st0" d="M83.4,557.5c-0.9,10.2-2,21-5.4,31h4.8c3.1-9.6,4.2-21,5-31H83.4z"/>
			<path class="st0" d="M127.1,588.5c-2.9-8.2-4.8-18.3-5.6-31h-4.3c0.9,13.4,2.6,23.5,5.1,31H127.1z"/>
		</g>
	</g>
</g>
<g>
	<path class="st1" d="M55.8,20.9c-10.7,0.3-16.1,0.4-34.5,3.2c18.5,6,35.1,19,49.5,30.2c10.6-0.6,21.6-5.1,28.1-8.7
		C86.9,33.5,70.4,22.2,55.8,20.9z"/>
	<path class="st1" d="M14,60.9c22.5,2.4,39.3,2.5,63.1-0.8c24.2-3.4,46.9-20.7,56.3-31.5c3.6-4.1,5.9-6.6,7.6-8.5
		c6,1.1,24.6,5.9,64-0.2c-5.9,6.2-10.3,8.9-15.3,12.6c-7.2,5.4-14.7,10.3-22.3,14.9c-19.5,11.9-34.2,19.1-59.5,25.5
		c-13.2,3.4-27.7,3.7-42.1,3.3c9.5,2.5,11.8,3.3,18.7,4.6c7.6,1.4,18.7,2.4,28,2.4c3.4,0,14.1-0.4,18-0.8
		c-1.2,3.5-9.1,10.4-17.9,10.3c-7.3-0.1-15.2-1.1-22.5-1.9c-12.2-1.4-24.3-4.3-36-8.6c-7.1-2.6-14.2-5.9-21-9.6
		C26.4,68.8,20.3,65.5,14,60.9z"/>
	<path class="st0" d="M147.8,107c-5.8-1.6-11.9-2.9-18-4.1c-15.9-3.1-28.6-3.3-48.5-2.8c-18.8,0.5-44.5,3.8-59.2,12.3
		c14.7-2.5,22.3-2.8,32.1-3c11.8-0.3,19.7-0.2,30.5,1.9c14.1,2.7,16.5,8.4,21.8,8.4c5.9,0.1,13.2-6,30.9-7.2
		c11.7-0.8,17.3-0.6,24.5,0.6C157.8,110.4,151.9,108.1,147.8,107z"/>
</g>
<g>
	<path class="st0" d="M156,149.5h-8.3V148h8.3v-3.5h1.2v8.7H156V149.5z"/>
	<path class="st0" d="M148.5,156.8c-0.6-0.6-0.9-1.5-0.9-2.6c0-0.6,0.2-1.2,0.6-1.6c0.4-0.5,0.9-0.7,1.5-0.7c0.7,0,1.3,0.4,1.8,1.1
		c0.5,0.7,0.7,1.6,0.7,2.7c0,0.3-0.1,0.6-0.2,1c1.1,0,1.7-0.6,1.7-1.8c0-0.9-0.2-1.6-0.6-2.1l1-0.6c0.2,0.3,0.4,0.6,0.5,1.1
		s0.2,0.9,0.2,1.4c0,1.2-0.2,2-0.7,2.6c-0.5,0.5-1.2,0.8-2.2,0.8h-2.5c-0.6,0-1,0.2-1.2,0.6h-0.6c0-0.6,0.1-1,0.2-1.3
		C148,157.1,148.2,156.9,148.5,156.8z M151.1,156.7c0.1-0.5,0.1-0.8,0.1-1c0-0.7-0.2-1.3-0.5-1.8s-0.7-0.7-1.1-0.7
		c-0.7,0-1.1,0.5-1.1,1.5c0,0.7,0.3,1.4,0.9,1.9h1.7V156.7z"/>
	<path class="st0" d="M147.8,160.9h5.9v-1.1h1v2.5h-6.9V160.9z M157.2,161.7c0,0.2-0.1,0.5-0.2,0.6c-0.1,0.2-0.3,0.3-0.5,0.3
		s-0.4-0.1-0.5-0.3s-0.2-0.4-0.2-0.6c0-0.2,0.1-0.5,0.2-0.6c0.1-0.2,0.3-0.3,0.5-0.3s0.4,0.1,0.5,0.3
		C157.2,161.2,157.2,161.5,157.2,161.7z"/>
	<path class="st0" d="M147.6,172v-0.4l4.7-2.4l-4.7-2.4v-0.4l7-2.9v1.5l-4.5,1.7l4.5,2.2v0.4l-4.5,2.2l4.5,1.9v1.4L147.6,172z"/>
	<path class="st0" d="M148.5,180.4c-0.6-0.6-0.9-1.4-0.9-2.6c0-0.6,0.2-1.2,0.6-1.6c0.4-0.5,0.9-0.7,1.5-0.7c0.7,0,1.3,0.4,1.8,1.1
		c0.5,0.7,0.7,1.6,0.7,2.7c0,0.3-0.1,0.6-0.2,1c1.1,0,1.7-0.6,1.7-1.8c0-0.9-0.2-1.6-0.6-2.1l1-0.6c0.2,0.3,0.4,0.6,0.5,1.1
		s0.2,0.9,0.2,1.4c0,1.2-0.2,2-0.7,2.6c-0.5,0.5-1.2,0.8-2.2,0.8h-2.5c-0.6,0-1,0.2-1.2,0.6h-0.6c0-0.6,0.1-1,0.2-1.3
		C148,180.8,148.2,180.6,148.5,180.4z M151.1,180.3c0.1-0.5,0.1-0.8,0.1-1c0-0.7-0.2-1.3-0.5-1.8s-0.7-0.7-1.1-0.7
		c-0.7,0-1.1,0.5-1.1,1.5c0,0.7,0.3,1.4,0.9,1.9h1.7V180.3z"/>
	<path class="st0" d="M147.8,188.8h4c0.7,0,1.2-0.1,1.5-0.4c0.3-0.3,0.4-0.7,0.4-1.3c0-0.3-0.1-0.7-0.3-1c-0.2-0.4-0.4-0.6-0.6-0.8
		h-5.1v-1.4h6.9v1l-0.9,0.5c0.7,0.5,1,1.2,1,2.3c0,1.8-0.9,2.7-2.7,2.7h-4.3v-1.6H147.8z"/>
	<path class="st0" d="M147.8,203.2h4.5v-4.8h-4.5v-1.5h9.4v1.5h-3.8v4.8h3.8v1.5h-9.4V203.2z"/>
	<path class="st0" d="M148.5,211.3c-0.6-0.6-0.9-1.5-0.9-2.6c0-0.6,0.2-1.2,0.6-1.6c0.4-0.5,0.9-0.7,1.5-0.7c0.7,0,1.3,0.4,1.8,1.1
		c0.5,0.7,0.7,1.6,0.7,2.7c0,0.3-0.1,0.6-0.2,1c1.1,0,1.7-0.6,1.7-1.8c0-0.9-0.2-1.6-0.6-2.1l1-0.6c0.2,0.3,0.4,0.7,0.5,1.1
		c0.1,0.5,0.2,0.9,0.2,1.4c0,1.2-0.2,2-0.7,2.6c-0.5,0.5-1.2,0.8-2.2,0.8h-2.5c-0.6,0-1,0.2-1.2,0.6h-0.6c0-0.6,0.1-1,0.2-1.3
		C148,211.6,148.2,211.4,148.5,211.3z M151.1,211.1c0.1-0.5,0.1-0.8,0.1-1c0-0.7-0.2-1.3-0.5-1.8s-0.7-0.7-1.1-0.7
		c-0.7,0-1.1,0.5-1.1,1.5c0,0.7,0.3,1.4,0.9,1.9h1.7V211.1z"/>
	<path class="st0" d="M147.8,219.9l3.4-2.5l-1.1-1.3h-2.3v-1.4h9.7v1.4h-6l3.2,3.1v1.7l-2.6-2.6l-4.3,3.2L147.8,219.9L147.8,219.9z"
		/>
	<path class="st0" d="M147.8,227.6l3.4-2.5l-1.1-1.3h-2.3v-1.4h9.7v1.4h-6l3.2,3.1v1.7L152,226l-4.3,3.2v-1.6H147.8z"/>
	<path class="st0" d="M148.5,234.6c-0.6-0.6-0.9-1.5-0.9-2.6c0-0.6,0.2-1.2,0.6-1.7c0.4-0.5,0.9-0.7,1.5-0.7c0.7,0,1.3,0.4,1.8,1.1
		c0.5,0.7,0.7,1.6,0.7,2.7c0,0.3-0.1,0.6-0.2,1c1.1,0,1.7-0.6,1.7-1.8c0-0.9-0.2-1.6-0.6-2.1l1-0.6c0.2,0.3,0.4,0.7,0.5,1.1
		c0.1,0.5,0.2,0.9,0.2,1.4c0,1.2-0.2,2-0.7,2.6c-0.5,0.5-1.2,0.8-2.2,0.8h-2.5c-0.6,0-1,0.2-1.2,0.6h-0.6c0-0.6,0.1-1,0.2-1.3
		C148,234.9,148.2,234.7,148.5,234.6z M151.1,234.5c0.1-0.5,0.1-0.8,0.1-1c0-0.7-0.2-1.3-0.5-1.8s-0.7-0.7-1.1-0.7
		c-0.7,0-1.1,0.5-1.1,1.5c0,0.7,0.3,1.4,0.9,1.9h1.7V234.5z"/>
	<path class="st0" d="M156.8,249.7l-1.1-0.5c0.3-0.5,0.4-1.2,0.4-2.3c0-1-0.4-1.8-1.1-2.3c-0.7-0.6-1.6-0.9-2.7-0.9
		c-1.1,0-1.9,0.3-2.6,0.9c-0.7,0.6-1,1.4-1,2.3c0,1,0.3,1.8,0.9,2.4l-1,0.8c-0.7-0.9-1.1-2-1.1-3.4s0.4-2.6,1.3-3.4
		c0.9-0.8,2.1-1.2,3.5-1.2s2.6,0.4,3.5,1.3c0.9,0.9,1.4,2,1.4,3.4C157.3,248.1,157.2,249,156.8,249.7z"/>
	<path class="st0" d="M154.6,253h-4.4c-1.1,0-1.6,0.5-1.6,1.6c0,0.5,0.1,0.9,0.3,1.3s0.5,0.7,0.8,0.8h4.8v1.4h-6.9v-1.4h0.9
		c-0.3-0.2-0.5-0.5-0.7-1s-0.3-1-0.3-1.4c0-0.9,0.2-1.6,0.6-2c0.4-0.5,1-0.7,1.8-0.7h4.5v1.4H154.6z"/>
	<path class="st0" d="M149.7,260.1h7.8v1.4H150c-0.4,0-0.7,0.1-0.9,0.4s-0.3,0.6-0.3,1h-1.1C147.6,261,148.3,260.1,149.7,260.1z"/>
	<path class="st0" d="M153.7,264.9V264h1v0.9h1.4l0.5,1.4h-1.9v2.2h-1v-2.2h-3.4c-0.6,0-1,0.1-1.2,0.3c-0.2,0.2-0.4,0.6-0.4,1.1
		c0,0.4,0.1,0.8,0.2,1.1l-1.1,0.2c-0.1-0.6-0.2-1.2-0.2-2c0-0.6,0.2-1.2,0.6-1.6c0.4-0.4,0.9-0.7,1.5-0.7h4V264.9z"/>
	<path class="st0" d="M154.6,271.7h-4.4c-1.1,0-1.6,0.5-1.6,1.6c0,0.5,0.1,0.9,0.3,1.3s0.5,0.6,0.8,0.8h4.8v1.4h-6.9v-1.4h0.9
		c-0.3-0.2-0.5-0.5-0.7-1s-0.3-1-0.3-1.4c0-0.9,0.2-1.6,0.6-2c0.4-0.5,1-0.7,1.8-0.7h4.5v1.4H154.6z"/>
	<path class="st0" d="M153.5,283.1c0.2-0.3,0.3-0.6,0.3-0.9c0-0.5-0.2-1-0.6-1.3c-0.4-0.4-0.9-0.6-1.4-0.6h-3.9v-1.4h6.9v1.4h-1.1
		c0.8,0.5,1.2,1.3,1.2,2.3c0,0.3,0,0.6-0.1,1.1L153.5,283.1z"/>
	<path class="st0" d="M151.1,291.4v-5.8c-0.8,0-1.4,0.3-1.9,0.8c-0.4,0.5-0.6,1-0.6,1.8s0.2,1.5,0.6,2.1l-0.9,0.6
		c-0.2-0.2-0.4-0.6-0.5-1c-0.2-0.6-0.3-1.2-0.3-1.9c0-1,0.3-1.9,0.9-2.6c0.6-0.8,1.5-1.2,2.6-1.2s2,0.4,2.7,1.2
		c0.6,0.7,0.9,1.6,0.9,2.6c0,1.2-0.3,2.1-0.8,2.7s-1.2,1-2.1,1C151.5,291.5,151.3,291.5,151.1,291.4z M153.7,287.9
		c0-0.6-0.2-1.2-0.5-1.6s-0.8-0.6-1.3-0.7v4.5c0.5,0,0.9-0.2,1.2-0.5C153.6,289.1,153.7,288.6,153.7,287.9z"/>
	<path class="st0" d="M147.8,299.7v-2.2h9.4c0,1.4,0.1,2.3,0.1,2.7c0,1.5-0.4,2.8-1.2,3.7c-0.8,0.9-1.9,1.4-3.2,1.4
		C149.4,305.3,147.8,303.4,147.8,299.7z M156,299h-7c0,0.3-0.1,0.8-0.1,1.3c0,1.1,0.3,1.9,1,2.5s1.6,0.9,2.8,0.9
		c2.2,0,3.3-1.2,3.3-3.5C156.1,300,156.1,299.6,156,299z"/>
	<path class="st0" d="M151.1,313.6v-5.8c-0.8,0-1.4,0.3-1.9,0.8c-0.4,0.5-0.6,1-0.6,1.8s0.2,1.5,0.6,2.1l-0.9,0.6
		c-0.2-0.2-0.4-0.6-0.5-1c-0.2-0.6-0.3-1.2-0.3-1.9c0-1,0.3-1.9,0.9-2.6c0.6-0.8,1.5-1.2,2.6-1.2s2,0.4,2.7,1.2
		c0.6,0.7,0.9,1.6,0.9,2.6c0,1.2-0.3,2.1-0.8,2.7s-1.2,1-2.1,1C151.5,313.7,151.3,313.6,151.1,313.6z M153.7,310.1
		c0-0.6-0.2-1.2-0.5-1.6s-0.8-0.6-1.3-0.7v4.5c0.5,0,0.9-0.2,1.2-0.5C153.6,311.3,153.7,310.8,153.7,310.1z"/>
	<path class="st0" d="M147.6,318v-0.4l7-3.5v1.6l-4.8,2.1l4.8,2.2v1.5L147.6,318z"/>
	<path class="st0" d="M151.1,329.3v-5.8c-0.8,0-1.4,0.3-1.9,0.8c-0.4,0.5-0.6,1.1-0.6,1.8c0,0.8,0.2,1.5,0.6,2.1l-0.9,0.6
		c-0.2-0.2-0.4-0.6-0.5-1c-0.2-0.6-0.3-1.2-0.3-1.9c0-1,0.3-1.9,0.9-2.6c0.6-0.8,1.5-1.2,2.6-1.2s2,0.4,2.7,1.2
		c0.6,0.7,0.9,1.6,0.9,2.6c0,1.2-0.3,2.1-0.8,2.7s-1.2,1-2.1,1C151.5,329.4,151.3,329.4,151.1,329.3z M153.7,325.8
		c0-0.6-0.2-1.2-0.5-1.6s-0.8-0.6-1.3-0.7v4.5c0.5,0,0.9-0.2,1.2-0.5C153.6,327,153.7,326.5,153.7,325.8z"/>
	<path class="st0" d="M149.7,330.9h7.8v1.4H150c-0.4,0-0.7,0.1-0.9,0.4c-0.2,0.2-0.3,0.6-0.3,1h-1.1
		C147.6,331.8,148.3,330.9,149.7,330.9z"/>
	<path class="st0" d="M151.2,334.7c1.1,0,1.9,0.3,2.6,1c0.7,0.7,1,1.6,1,2.7c0,1.2-0.3,2.1-0.9,2.7c-0.6,0.6-1.5,1-2.6,1
		s-2-0.3-2.6-1s-1-1.5-1-2.7s0.3-2.1,1-2.7C149.2,335,150.1,334.7,151.2,334.7z M151.2,336.2c-1.7,0-2.6,0.7-2.6,2.2
		c0,0.7,0.2,1.2,0.7,1.6s1.1,0.6,1.9,0.6c1.7,0,2.6-0.7,2.6-2.1c0-0.7-0.2-1.2-0.7-1.6C152.6,336.4,152,336.2,151.2,336.2z"/>
	<path class="st0" d="M148.1,344.8H145v-1.4h9.6v1.4H154c0.5,0.5,0.7,1.2,0.7,2c0,1.2-0.3,2-0.9,2.7c-0.6,0.6-1.5,1-2.7,1
		c-1,0-1.9-0.3-2.6-1c-0.7-0.6-1-1.6-1-2.8c0-0.3,0.1-0.7,0.1-1.1C147.9,345.2,148,344.9,148.1,344.8z M153.1,344.8h-4
		c-0.1,0.1-0.2,0.3-0.3,0.6c-0.1,0.3-0.2,0.6-0.2,0.9c0,1.8,0.9,2.7,2.6,2.7c0.9,0,1.5-0.2,1.9-0.6s0.6-1.1,0.6-2
		c0-0.2-0.1-0.4-0.2-0.7C153.4,345.2,153.3,345,153.1,344.8z"/>
	<path class="st0" d="M147.8,361.2h4.3c1.1,0,1.6-0.6,1.6-1.7c0-0.3-0.1-0.7-0.3-1s-0.4-0.5-0.6-0.6h-5.1v-1.4h4.9
		c0.3,0,0.6-0.2,0.8-0.4c0.2-0.3,0.3-0.7,0.3-1.2c0-0.3-0.1-0.6-0.3-0.9s-0.4-0.6-0.6-0.7h-5.1v-1.4h6.9v0.9l-0.8,0.5
		c0.6,0.5,0.9,1.2,0.9,2.1c0,1.2-0.3,2-0.9,2.4c0.3,0.2,0.5,0.5,0.7,0.9s0.3,0.9,0.3,1.4c0,0.8-0.2,1.5-0.6,1.9
		c-0.4,0.5-1,0.7-1.8,0.7h-4.6L147.8,361.2L147.8,361.2z"/>
	<path class="st0" d="M151.1,371.4v-5.8c-0.8,0-1.4,0.3-1.9,0.8c-0.4,0.5-0.6,1.1-0.6,1.8c0,0.8,0.2,1.5,0.6,2.1l-0.9,0.6
		c-0.2-0.2-0.4-0.6-0.5-1c-0.2-0.6-0.3-1.2-0.3-1.9c0-1,0.3-1.9,0.9-2.6c0.6-0.8,1.5-1.2,2.6-1.2s2,0.4,2.7,1.2
		c0.6,0.7,0.9,1.6,0.9,2.6c0,1.2-0.3,2.1-0.8,2.7s-1.2,0.9-2.1,0.9C151.5,371.5,151.3,371.5,151.1,371.4z M153.7,367.9
		c0-0.6-0.2-1.2-0.5-1.6s-0.8-0.6-1.3-0.7v4.5c0.5,0,0.9-0.2,1.2-0.5C153.6,369.1,153.7,368.6,153.7,367.9z"/>
	<path class="st0" d="M147.8,377.9h4c0.7,0,1.2-0.1,1.5-0.4s0.4-0.7,0.4-1.3c0-0.3-0.1-0.7-0.3-1c-0.2-0.4-0.4-0.6-0.6-0.8h-5.1V373
		h6.9v1l-0.9,0.5c0.7,0.5,1,1.2,1,2.3c0,1.8-0.9,2.7-2.7,2.7h-4.3v-1.6H147.8z"/>
	<path class="st0" d="M153.7,381.7v-0.9h1v0.9h1.4l0.5,1.4h-1.9v2.2h-1v-2.2h-3.4c-0.6,0-1,0.1-1.2,0.3c-0.2,0.2-0.4,0.6-0.4,1.1
		c0,0.4,0.1,0.8,0.2,1.1l-1.1,0.2c-0.1-0.6-0.2-1.2-0.2-2c0-0.6,0.2-1.2,0.6-1.6c0.4-0.4,0.9-0.7,1.5-0.7h4V381.7z"/>
	<path class="st0" d="M156.8,398.9l-1.1-0.5c0.3-0.5,0.4-1.2,0.4-2.3c0-1-0.4-1.8-1.1-2.3c-0.7-0.6-1.6-0.9-2.7-0.9
		c-1.1,0-1.9,0.3-2.6,0.9c-0.7,0.6-1,1.4-1,2.3c0,1,0.3,1.8,0.9,2.4l-1,0.8c-0.7-0.9-1.1-2-1.1-3.4s0.4-2.6,1.3-3.4
		c0.9-0.8,2.1-1.2,3.5-1.2s2.6,0.4,3.5,1.3s1.4,2,1.4,3.4C157.3,397.3,157.2,398.2,156.8,398.9z"/>
	<path class="st0" d="M151.1,407.6v-5.8c-0.8,0-1.4,0.3-1.9,0.8c-0.4,0.5-0.6,1.1-0.6,1.8c0,0.8,0.2,1.5,0.6,2.1l-0.9,0.6
		c-0.2-0.2-0.4-0.6-0.5-1c-0.2-0.6-0.3-1.2-0.3-1.9c0-1,0.3-1.9,0.9-2.6c0.6-0.8,1.5-1.2,2.6-1.2s2,0.4,2.7,1.2
		c0.6,0.7,0.9,1.6,0.9,2.6c0,1.2-0.3,2.1-0.8,2.7s-1.2,1-2.1,1C151.5,407.8,151.3,407.7,151.1,407.6z M153.7,404.2
		c0-0.6-0.2-1.2-0.5-1.6s-0.8-0.6-1.3-0.7v4.5c0.5,0,0.9-0.2,1.2-0.5C153.6,405.4,153.7,404.8,153.7,404.2z"/>
	<path class="st0" d="M147.8,414.1h4c0.7,0,1.2-0.1,1.5-0.4s0.4-0.7,0.4-1.3c0-0.3-0.1-0.7-0.3-1c-0.2-0.4-0.4-0.6-0.6-0.8h-5.1
		v-1.4h6.9v1l-0.9,0.4c0.7,0.5,1,1.2,1,2.3c0,1.8-0.9,2.7-2.7,2.7h-4.3v-1.5H147.8z"/>
	<path class="st0" d="M153.7,418v-1h1v0.9h1.4l0.5,1.4h-1.9v2.2h-1v-2.2h-3.4c-0.6,0-1,0.1-1.2,0.3c-0.2,0.2-0.4,0.6-0.4,1.1
		c0,0.4,0.1,0.7,0.2,1.1l-1.1,0.2c-0.1-0.6-0.2-1.2-0.2-2c0-0.6,0.2-1.2,0.6-1.6c0.4-0.4,0.9-0.7,1.5-0.7h4V418z"/>
	<path class="st0" d="M151.1,430.3v-5.8c-0.8,0-1.4,0.3-1.9,0.8c-0.4,0.5-0.6,1.1-0.6,1.8c0,0.8,0.2,1.5,0.6,2.1l-0.9,0.6
		c-0.2-0.2-0.4-0.6-0.5-1c-0.2-0.6-0.3-1.2-0.3-1.9c0-1,0.3-1.9,0.9-2.6c0.6-0.8,1.5-1.2,2.6-1.2s2,0.4,2.7,1.2
		c0.6,0.7,0.9,1.6,0.9,2.6c0,1.2-0.3,2.1-0.8,2.7s-1.2,0.9-2.1,0.9C151.5,430.4,151.3,430.3,151.1,430.3z M153.7,426.8
		c0-0.6-0.2-1.2-0.5-1.6s-0.8-0.7-1.3-0.7v4.5c0.5,0,0.9-0.2,1.2-0.5C153.6,428,153.7,427.5,153.7,426.8z"/>
	<path class="st0" d="M153.5,436.1c0.2-0.3,0.3-0.6,0.3-0.9c0-0.5-0.2-1-0.6-1.3c-0.4-0.4-0.9-0.6-1.4-0.6h-3.9v-1.4h6.9v1.4h-1.1
		c0.8,0.5,1.2,1.3,1.2,2.3c0,0.3,0,0.6-0.1,1.1L153.5,436.1z"/>
	<path class="st0" d="M145.4,436.1l0.5-0.4c0.6,0.9,1.1,1.3,1.5,1.3c0.2,0,0.4-0.1,0.6-0.2c0.2-0.4,0.4-0.7,0.8-0.7
		c0.2,0,0.4,0.1,0.6,0.3c0.1,0.2,0.2,0.5,0.2,0.8s-0.1,0.5-0.3,0.7s-0.4,0.3-0.7,0.3c-0.6,0-1.1-0.1-1.5-0.4
		C146.5,437.6,146,437,145.4,436.1z"/>
	<path class="st0" d="M147.8,451.9h4.5v-4.8h-4.5v-1.5h9.4v1.5h-3.8v4.8h3.8v1.5h-9.4V451.9z"/>
	<path class="st0" d="M148.5,460c-0.6-0.6-0.9-1.5-0.9-2.6c0-0.6,0.2-1.2,0.6-1.6c0.4-0.5,0.9-0.7,1.5-0.7c0.7,0,1.3,0.4,1.8,1.1
		s0.7,1.6,0.7,2.7c0,0.3-0.1,0.6-0.2,1c1.1,0,1.7-0.6,1.7-1.8c0-0.9-0.2-1.6-0.6-2.1l1-0.6c0.2,0.3,0.4,0.7,0.5,1.1
		c0.1,0.5,0.2,0.9,0.2,1.4c0,1.2-0.2,2-0.7,2.6c-0.5,0.5-1.2,0.8-2.2,0.8h-2.5c-0.6,0-1,0.2-1.2,0.6h-0.6c0-0.6,0.1-1,0.2-1.3
		C148,460.4,148.2,460.2,148.5,460z M151.1,459.9c0.1-0.5,0.1-0.8,0.1-1c0-0.7-0.2-1.3-0.5-1.8s-0.7-0.7-1.1-0.7
		c-0.7,0-1.1,0.5-1.1,1.5c0,0.7,0.3,1.4,0.9,1.9h1.7V459.9z"/>
	<path class="st0" d="M147.8,468.7l3.4-2.5l-1.1-1.3h-2.3v-1.4h9.7v1.4h-6l3.2,3.1v1.7l-2.6-2.6l-4.3,3.2L147.8,468.7L147.8,468.7z"
		/>
	<path class="st0" d="M147.8,476.3l3.4-2.5l-1.1-1.3h-2.3v-1.4h9.7v1.4h-6l3.2,3.1v1.7l-2.6-2.6l-4.3,3.2L147.8,476.3L147.8,476.3z"
		/>
	<path class="st0" d="M148.5,483.4c-0.6-0.6-0.9-1.5-0.9-2.6c0-0.6,0.2-1.2,0.6-1.6c0.4-0.5,0.9-0.7,1.5-0.7c0.7,0,1.3,0.4,1.8,1.1
		s0.7,1.6,0.7,2.7c0,0.3-0.1,0.6-0.2,1c1.1,0,1.7-0.6,1.7-1.8c0-0.9-0.2-1.6-0.6-2.1l1-0.6c0.2,0.3,0.4,0.7,0.5,1.1
		c0.1,0.5,0.2,0.9,0.2,1.4c0,1.2-0.2,2-0.7,2.6c-0.5,0.5-1.2,0.8-2.2,0.8h-2.5c-0.6,0-1,0.2-1.2,0.6h-0.6c0-0.6,0.1-1,0.2-1.3
		C148,483.7,148.2,483.5,148.5,483.4z M151.1,483.2c0.1-0.5,0.1-0.8,0.1-1c0-0.7-0.2-1.3-0.5-1.8s-0.7-0.7-1.1-0.7
		c-0.7,0-1.1,0.5-1.1,1.5c0,0.7,0.3,1.4,0.9,1.9h1.7V483.2z"/>
	<path class="st0" d="M147.8,496.8l2-0.8v-4l-2-0.8v-1.7l9.5,4.5v0.4l-9.5,4.2V496.8z M154.8,494.1l-4.1-1.7v3.3L154.8,494.1z"/>
	<path class="st0" d="M156.4,503.8c0.1-0.3,0.1-0.6,0.1-0.8c0-0.4-0.1-0.8-0.4-1.1c-0.3-0.3-0.6-0.4-1.1-0.4c-0.1,0-0.2,0-0.4,0v1.6
		h-1v-1.6h-5.9v-1.4h5.9v-1.2h1v1.2c0.9,0,1.6,0.3,2.1,0.8s0.8,1.2,0.8,2c0,0.4-0.1,0.9-0.2,1.3L156.4,503.8z"/>
	<path class="st0" d="M156.4,509.4c0.1-0.3,0.1-0.6,0.1-0.8c0-0.4-0.1-0.8-0.4-1.1c-0.3-0.3-0.6-0.4-1.1-0.4c-0.1,0-0.2,0-0.4,0v1.6
		h-1v-1.6h-5.9v-1.4h5.9v-1.2h1v1.2c0.9,0,1.6,0.3,2.1,0.8s0.8,1.2,0.8,2c0,0.4-0.1,0.9-0.2,1.3L156.4,509.4z"/>
	<path class="st0" d="M148.5,515.2c-0.6-0.6-0.9-1.5-0.9-2.6c0-0.6,0.2-1.2,0.6-1.7c0.4-0.5,0.9-0.7,1.5-0.7c0.7,0,1.3,0.4,1.8,1.1
		c0.5,0.7,0.7,1.6,0.7,2.7c0,0.3-0.1,0.6-0.2,1c1.1,0,1.7-0.6,1.7-1.8c0-0.9-0.2-1.6-0.6-2.1l1-0.6c0.2,0.3,0.4,0.6,0.5,1.1
		c0.1,0.5,0.2,0.9,0.2,1.4c0,1.2-0.2,2-0.7,2.6c-0.5,0.5-1.2,0.8-2.2,0.8h-2.5c-0.6,0-1,0.2-1.2,0.6h-0.6c0-0.6,0.1-1,0.2-1.3
		C148,515.5,148.2,515.3,148.5,515.2z M151.1,515c0.1-0.5,0.1-0.8,0.1-1c0-0.7-0.2-1.3-0.5-1.8s-0.7-0.7-1.1-0.7
		c-0.7,0-1.1,0.5-1.1,1.5c0,0.7,0.3,1.4,0.9,1.9L151.1,515L151.1,515z"/>
	<path class="st0" d="M147.8,519.3h5.9v-1.1h1v2.5h-6.9V519.3z M157.2,520.1c0,0.2-0.1,0.5-0.2,0.6c-0.1,0.2-0.3,0.3-0.5,0.3
		s-0.4-0.1-0.5-0.3s-0.2-0.4-0.2-0.6c0-0.2,0.1-0.5,0.2-0.6c0.1-0.2,0.3-0.3,0.5-0.3s0.4,0.1,0.5,0.3
		C157.2,519.6,157.2,519.8,157.2,520.1z"/>
	<path class="st0" d="M153.5,527.3c0.2-0.3,0.3-0.6,0.3-0.9c0-0.5-0.2-1-0.6-1.3c-0.4-0.4-0.9-0.6-1.4-0.6h-3.9V523h6.9v1.4h-1.1
		c0.8,0.5,1.2,1.3,1.2,2.3c0,0.3,0,0.6-0.1,1.1L153.5,527.3z"/>
	<path class="st0" d="M148.2,528.2l1.2,0.5c-0.4,0.8-0.7,1.4-0.7,1.9c0,0.9,0.3,1.3,0.9,1.3c0.5,0,0.8-0.4,1.2-1.3
		c0.3-0.7,0.4-1.1,0.6-1.3c0.1-0.2,0.3-0.4,0.5-0.6c0.2-0.2,0.4-0.3,0.5-0.4c0.2-0.1,0.4-0.1,0.6-0.1c0.6,0,1,0.2,1.3,0.7
		s0.5,1.1,0.5,1.9c0,0.6-0.2,1.3-0.5,2.2l-1.1-0.4c0.4-0.6,0.6-1.1,0.6-1.7c0-0.3-0.1-0.6-0.2-0.9c-0.1-0.2-0.3-0.3-0.5-0.3
		c-0.4,0-0.8,0.3-1,0.9l-0.4,1c-0.2,0.6-0.5,1.1-0.8,1.4c-0.3,0.3-0.7,0.4-1.2,0.4c-0.6,0-1.1-0.3-1.4-0.8c-0.4-0.5-0.5-1.2-0.5-2.1
		C147.6,529.8,147.8,529,148.2,528.2z"/>
	<path class="st0" d="M156.8,546.6l-1.1-0.5c0.3-0.5,0.4-1.2,0.4-2.3c0-1-0.4-1.8-1.1-2.3c-0.7-0.6-1.6-0.9-2.7-0.9
		c-1.1,0-1.9,0.3-2.6,0.9c-0.7,0.6-1,1.4-1,2.3c0,1,0.3,1.8,0.9,2.4l-1,0.8c-0.7-0.9-1.1-2-1.1-3.4s0.4-2.6,1.3-3.4
		c0.9-0.8,2.1-1.2,3.5-1.2s2.6,0.4,3.5,1.3c0.9,0.9,1.4,2,1.4,3.4C157.3,544.9,157.2,545.9,156.8,546.6z"/>
	<path class="st0" d="M151.2,548c1.1,0,1.9,0.3,2.6,1c0.7,0.7,1,1.6,1,2.7c0,1.2-0.3,2.1-0.9,2.7c-0.6,0.6-1.5,1-2.6,1s-2-0.3-2.6-1
		s-1-1.5-1-2.7s0.3-2.1,1-2.7C149.2,548.3,150.1,548,151.2,548z M151.2,549.5c-1.7,0-2.6,0.7-2.6,2.2c0,0.7,0.2,1.2,0.7,1.6
		c0.5,0.4,1.1,0.6,1.9,0.6c1.7,0,2.6-0.7,2.6-2.1c0-0.7-0.2-1.2-0.7-1.6C152.6,549.7,152,549.5,151.2,549.5z"/>
	<path class="st0" d="M154.6,558h-4.4c-1.1,0-1.6,0.5-1.6,1.6c0,0.5,0.1,0.9,0.3,1.3c0.2,0.4,0.5,0.7,0.8,0.8h4.8v1.4h-6.9v-1.4h0.9
		c-0.3-0.2-0.5-0.5-0.7-1s-0.3-1-0.3-1.4c0-0.9,0.2-1.6,0.6-2c0.4-0.5,1-0.7,1.8-0.7h4.5v1.4H154.6z"/>
	<path class="st0" d="M147.8,570h4c0.7,0,1.2-0.1,1.5-0.4c0.3-0.3,0.4-0.7,0.4-1.3c0-0.3-0.1-0.7-0.3-1c-0.2-0.4-0.4-0.6-0.6-0.8
		h-5.1V565h6.9v1l-0.9,0.5c0.7,0.5,1,1.2,1,2.3c0,1.8-0.9,2.7-2.7,2.7h-4.3V570H147.8z"/>
	<path class="st0" d="M154.1,579.4l-0.9-0.7c0.1-0.1,0.2-0.4,0.4-0.8c0.1-0.4,0.2-0.7,0.2-1.1c0-0.8-0.2-1.4-0.7-1.9
		s-1.1-0.7-1.9-0.7c-0.8,0-1.4,0.2-1.8,0.7c-0.4,0.5-0.6,1.1-0.6,1.9c0,0.6,0.2,1.3,0.6,1.9l-1,0.6c-0.4-0.8-0.6-1.7-0.6-2.9
		c0-1.1,0.3-2,0.9-2.7c0.6-0.7,1.5-1.1,2.6-1.1s2,0.4,2.6,1.1c0.7,0.7,1,1.8,1,3.1c0,0.4-0.1,0.9-0.2,1.4
		C154.4,578.8,154.2,579.2,154.1,579.4z"/>
	<path class="st0" d="M147.8,581.5h5.9v-1.1h1v2.5h-6.9V581.5z M157.2,582.3c0,0.2-0.1,0.5-0.2,0.6c-0.1,0.2-0.3,0.3-0.5,0.3
		s-0.4-0.1-0.5-0.3s-0.2-0.4-0.2-0.6c0-0.2,0.1-0.5,0.2-0.6c0.1-0.2,0.3-0.3,0.5-0.3s0.4,0.1,0.5,0.3
		C157.2,581.8,157.2,582.1,157.2,582.3z"/>
	<path class="st0" d="M149.7,585.2h7.8v1.4H150c-0.4,0-0.7,0.1-0.9,0.4c-0.2,0.3-0.3,0.6-0.3,1h-1.1
		C147.6,586.1,148.3,585.2,149.7,585.2z"/>
</g>
<g>
	<path class="st0" d="M53.2,164.5c-2.4-0.9-5.3-2.2-7.1-3.1c-2.5,1.1-5,2.3-7.6,3.1h-9.2c4.5-1.4,9.4-2.9,13.6-4.9
		c-1.4-0.9-3-2-4.2-3c-0.4,0.3-1.1,0.7-1.8,1.1h-6.4c3.8-1.8,7.5-4.3,10.6-7.4h4.7c-0.3,0.4-1.1,1.2-1.5,1.6h10.1
		c0.7,0,1.3,0.5,1.6,1.1c0.3,0.7,0.2,1.6-0.5,2.2c-1.6,1.4-4.1,3.2-6.2,4.4c3.4,1.6,7.9,3.1,12.8,4.7h-8.9V164.5z M58.2,153.9v-3.4
		c0-0.5-0.3-0.8-0.7-0.8h-23c-0.5,0-0.9,0.3-0.9,0.9v3.3h-3.3v-3.8c0-0.7,0.3-1.6,1-2.1c0.5-0.5,1.2-0.8,2.1-0.8h11.2
		c-0.3-0.7-0.9-2-1.2-2.7h3.8c0.3,0.8,0.7,1.9,1.3,2.7H59c0.8,0,1.6,0.4,2,1c0.4,0.5,0.7,1.1,0.7,1.8v4L58.2,153.9L58.2,153.9z
		 M57.9,176c-0.6,0.6-1.4,0.9-2,0.9H36.1c-0.6,0-1.4-0.3-2-0.8c-0.5-0.5-0.9-1.3-0.9-2.3v-5.4c0-0.8,0.4-1.5,0.9-2
		c0.5-0.4,1.1-0.7,1.7-0.7h19.9c0.9,0,1.6,0.3,2.1,0.9c0.5,0.5,0.7,1.3,0.7,2.1v5.5C58.6,175,58.3,175.6,57.9,176z M55.3,169.1
		c0-0.4-0.3-0.7-0.7-0.7H37.2c-0.5,0-0.8,0.3-0.8,0.8v4.4c0,0.4,0.4,0.7,0.7,0.7h17.3c0.4,0,0.7-0.3,0.7-0.8v-4.4H55.3z M41.2,154.7
		c-0.3,0.3-0.9,0.8-1.4,1.1h2.7c1.1,0.9,2.3,1.6,3.5,2.3c1.8-1,3.5-2.1,5.2-3.3h-10V154.7z"/>
	<path class="st0" d="M45.2,199.5c-0.6,0.7-1.9,1.8-2.7,2.6h3.1c1,0,1.9,0.3,2.4,1c0.5,0.6,0.8,1.4,0.8,2.4v13c0,0.9-0.4,1.7-1,2.3
		c-0.6,0.5-1.4,0.7-2.4,0.7H42l-1.4-2.6h4c0.5,0,0.9-0.4,0.9-1v-6.3c-3,3.2-6.2,6-10,8.2h-6.3c4.4-2.1,8.6-4.9,12.2-8.7h4.1v-5.4
		c0-0.5-0.3-1.1-0.9-1.1h-5.5c-0.5,0.4-1.4,1.1-2,1.4h-6.8c3.6-1.7,7.2-3.8,10.3-6.6h-5.3v-2.6h20.3v2.6H45.2V199.5z M36.2,212.9
		h-6.7c3.6-1.7,7.3-3.6,10.3-6.9h4.5C41.8,208.8,39.1,211.1,36.2,212.9z M57.3,199.9v-4.6c0-0.4-0.3-0.9-0.8-0.9h-22
		c-0.4,0-0.8,0.4-0.8,0.9v4.5h-3.4v-4.7c0-1.1,0.3-1.9,0.9-2.5s1.5-0.9,2.5-0.9h10.1c-0.5-0.9-1-1.8-1.4-2.7h4
		c0.3,0.8,1,1.9,1.6,2.7h10.1c1,0,1.7,0.4,2.2,1.1c0.4,0.6,0.7,1.4,0.7,2.3v4.6h-3.7V199.9z M57.5,219.7c-3.8-5-6.3-10.4-8.1-16.2
		h3.5c0.3,1.1,0.7,2.1,1.1,3.1c1-1.4,2-3.1,2.9-4.8h3.8c-1.5,2.8-3.2,5.5-5.3,8.1c1.7,3.5,3.6,6.8,6.8,9.8L57.5,219.7L57.5,219.7z"
		/>
	<path class="st0" d="M34.6,249.9h-5.2c2.1-1.4,4.7-3.9,6.3-6.3h4.1C38.4,245.9,36.8,248.1,34.6,249.9z M56.6,254.9
		c-1.6,2.7-4.4,5.1-7.1,6.7c3.3,1.4,8.3,3.3,11.7,4.5h-8.5c-2.2-0.8-4.5-1.7-6.5-2.6c-2.1,1-4.3,1.9-6.5,2.6h-9.9
		c4.3-1.1,8.6-2.3,12.7-4.1c-1.5-0.7-4.5-2-5.9-2.6c-0.5-0.2-0.9-0.7-0.9-1.3c0-0.4,0.1-0.8,0.5-1.1l2.1-2.1h-8.6v-2.4h11l2.6-3h4.3
		l-2.6,3h16.9v2.4H56.6z M47.4,242.4v6H44v-6H30V240h14v-2.5c-3.7,0.1-7.6,0.2-11.4,0.3v-2.6c7.6,0.1,17.6-0.3,26.2-1.6v2.7
		c-3.8,0.4-7.6,0.7-11.4,1v2.7h14v2.4L47.4,242.4L47.4,242.4z M42.8,254.9l-2.4,2.3c-0.2,0.2-0.1,0.4,0.1,0.5
		c1.5,0.7,3.5,1.6,5.6,2.5c2-1,4.7-3,6.7-5.3L42.8,254.9L42.8,254.9z M56.3,249.9c-1.9-2-3.5-4.1-4.7-6.3h3.8
		c1.6,2.3,3.6,4.6,5.9,6.3H56.3z"/>
	<path class="st0" d="M36.4,310.5H29c2.7-1,5.6-2.6,7.8-4.3h5.5C40.8,307.6,38,309.5,36.4,310.5z M59,304.3c-0.7,0.6-1.6,1-2.7,1
		h-22c-0.9,0-1.7-0.4-2.2-1c-0.6-0.6-0.9-1.5-0.9-2.4v-10.4c0-1,0.4-1.8,1.1-2.4c0.6-0.5,1.4-0.8,2.3-0.8h21.7c1,0,2,0.3,2.6,1
		c0.6,0.6,0.9,1.5,0.9,2.7v10C59.9,302.9,59.6,303.7,59,304.3z M58,285.3c-0.4,0.5-1.1,0.9-2.2,0.9H34.6c-0.6,0-1.2-0.3-1.6-0.7
		c-0.4-0.5-0.7-1-0.7-1.6v-2.6c0-0.8,0.3-1.5,0.8-2s1.3-0.8,2.1-0.8H56c0.7,0,1.4,0.3,1.9,0.8s0.7,1.1,0.7,1.8v2
		C58.7,283.9,58.5,284.7,58,285.3z M56.5,291.7c0-0.4-0.3-1-0.9-1h-20c-0.5,0-1,0.6-1,1.1v1.2h21.9V291.7z M56.5,295.4H34.6v2.5
		h21.9V295.4z M56.5,300.3H34.6v1.7c0,0.4,0.4,0.9,0.9,0.9h20c0.5,0,1-0.3,1-1V300.3z M55.3,281.6c0-0.5-0.3-0.7-0.7-0.7H36.3
		c-0.3,0-0.7,0.4-0.7,0.8v1.4c0,0.5,0.3,0.7,0.7,0.7h18.2c0.4,0,0.7-0.3,0.7-0.7L55.3,281.6L55.3,281.6z M55,310.5
		c-2.1-1.2-4.3-2.9-6.1-4.3h5.6c2,1.5,5.1,3.2,7.7,4.3H55z"/>
	<path class="st0" d="M57,330.6c-1.7-1.4-3.8-3.4-5.2-4.9c-0.3-0.3-0.9-0.5-1.2-0.5h-9.3c-0.4,0-1.1,0.3-1.3,0.6
		c-1.3,1.4-3.6,3.6-5.2,4.9h-5.4c3.3-2.1,6.4-4.9,8.3-6.9c0.3-0.3,0.6-0.5,1.1-0.7c0.4-0.1,0.7-0.2,1.2-0.2h12
		c0.4,0,0.9,0.1,1.3,0.3c0.4,0.1,0.8,0.4,1.1,0.7c2,2.1,4.7,4.6,7.6,6.8L57,330.6L57,330.6z M59.2,340.6c-0.6,0.6-1.3,1-2.3,1H34.1
		c-0.7,0-1.3-0.3-1.8-0.8c-0.6-0.6-1-1.3-1-2.1v-3.9c0-0.8,0.3-1.6,0.9-2.1c0.6-0.6,1.3-1,2.2-1h22.3c0.8,0,1.6,0.3,2.2,0.8
		c0.7,0.6,1.1,1.4,1.1,2.5v3.5C60,339.2,59.7,340,59.2,340.6z M57.2,354.4c-0.6,0.5-1.4,0.8-2.4,0.8H36c-0.7,0-1.5-0.3-2.1-0.8
		c-0.6-0.6-1-1.4-1-2.3v-5.8c0-0.8,0.5-1.6,1.2-2.1c0.5-0.4,1.2-0.7,1.9-0.7h19.1c0.9,0,1.7,0.4,2.3,0.9c0.6,0.6,0.9,1.4,0.9,2.4
		v5.2C58.3,352.9,57.9,353.8,57.2,354.4z M44,334.2h-8.6c-0.4,0-0.8,0.4-0.8,0.8v3.3c0,0.6,0.3,0.9,0.7,0.9h3.6
		c-0.4-0.9-1.4-2.9-1.8-4.1h3.2c0.4,1.1,1.4,3.1,1.9,4.1H44V334.2z M55,346.7c0-0.4-0.5-0.8-1-0.8H37.3c-0.6,0-0.9,0.4-0.9,0.9v1.4
		H55V346.7z M55,350.5H36.4v1.4c0,0.5,0.5,0.9,0.9,0.9h16.9c0.6,0,0.9-0.4,0.9-1v-1.3H55z M38.8,329.8v-2.3h13.9v2.3H38.8z
		 M56.8,335c0-0.4-0.4-0.9-0.9-0.9h-8.6v5h1.8c0.7-1.1,1.6-2.9,2-4.1h3.2c-0.3,1-1.2,2.9-2,4.1h3.5c0.5,0,0.9-0.4,0.9-0.9V335H56.8z
		"/>
</g>
</svg>
