<?xml version="1.0" encoding="utf-8"?>
<!-- Generator: Adobe Illustrator 24.1.3, SVG Export Plug-In . SVG Version: 6.00 Build 0)  -->
<svg version="1.1" id="圖層_1" xmlns="http://www.w3.org/2000/svg" xmlns:xlink="http://www.w3.org/1999/xlink" x="0px" y="0px"
	 viewBox="0 0 285 207" style="enable-background:new 0 0 285 207;" xml:space="preserve">
<style type="text/css">
	.st0{fill-rule:evenodd;clip-rule:evenodd;fill:#FFFFFF;}
</style>
<path class="st0" d="M118.5,171c-23.1-3.2-45.5-5.8-67.8-9.6c-8.2-1.4-16.3-4.9-23.9-8.3c-6.1-2.8-11.8-7.3-11.7-14.9
	c0.2-8,6.2-12.2,12.6-15.5c14-7.1,29.3-10,44.7-12c47.5-6.2,95.1-6.4,142.4,1.2c12.8,2,25.3,6.7,37.8,10.8c3.4,1.1,6.5,4,9,6.8
	c5.5,6.2,5.3,13.5-1.2,18.8c-4.8,3.9-10.6,6.9-16.4,9.1c-16.8,6.4-34.6,8.4-52.3,10.2c-10.6,1.1-21.3,1.5-31.9,2.1
	c-5.7,0.3-9.2-2.3-9.3-6.6c-0.1-4.2,3.3-6.9,9-7.4c18.2-1.6,36.5-2.7,54.7-5.2c10.1-1.4,20-5,29.8-7.9c1.8-0.5,4.3-3.1,4.2-4.6
	c-0.1-1.6-2.5-4.1-4.4-4.5c-13.8-3.5-27.7-7.5-41.7-9.5c-38.6-5.4-77.5-5.3-116.1-0.9c-15.8,1.8-31.3,6.1-46.8,9.7
	c-2.6,0.6-4.6,3.6-6.9,5.6c2.3,1.9,4.4,4.9,7,5.5c16.4,3.7,32.8,7.1,49.3,9.9c9.1,1.5,18.4,1.6,28.9,2.5c-2.8-3.4-4.7-5.6-6.4-7.9
	c-2.8-3.8-2.5-7.6,0.7-10.2c3.1-2.6,6.9-2,10,1.6c5.5,6.3,10.9,12.6,16.2,19c4,4.8,3.9,8.5-0.3,12.8c-5.8,5.9-11.8,11.8-17.8,17.5
	c-3.7,3.6-7.6,3.7-10.6,0.8c-2.8-2.7-2.4-7.1,1.1-10.6C113,176.1,116,173.4,118.5,171z"/>
<path class="st0" d="M66.8,17.8c5.6,0,10.7-0.3,15.8,0.2c1.4,0.1,3.3,2.4,3.9,4.1c6.2,16.5,12.1,33.1,18.1,49.7
	c0.4,1.1,0.8,2.1,1.6,4.1c1.7-4.5,3.1-8.3,4.5-12c5-13.9,10.1-27.8,15-41.8c1.1-3.1,2.4-4.5,5.9-4.4c16.1,0.4,32.3,0.5,48.5,0.7
	c0.3,0,0.7,0.1,1,0.1c11.4,1.7,18.6,7.5,20.5,16.3c2.3,10.4-2.2,20.6-11.7,26.6c-1,0.6-2,1.2-3.6,2.1c9,11.3,17.9,22.3,27.5,34.3
	c-7.5,0-13.9,0.2-20.3-0.1c-1.3-0.1-2.7-1.7-3.7-2.9c-5.3-6.7-10.9-13.1-15.5-20.2c-4-6.2-9-8.3-16.4-6.3c0,9.4,0,19.1,0,29.2
	c-6.1,0-11.6,0-17.5,0c0-14.8,0-29.6,0-44.8c11,0,21.8,0,32.6,0c4.8,0,8.4-2.1,10.5-6.3c2-3.9,1.7-8.2-1.3-11.2
	c-2.3-2.2-5.8-4.3-8.9-4.5c-10-0.6-20-0.1-30-0.3c-3.3-0.1-3.7,2.1-4.5,4.3c-7.4,19.4-14.8,38.9-22,58.4c-1.4,3.8-3.2,5-7.2,4.9
	c-12.6-0.3-12.7-0.1-17.2-12c-8-21-15.9-42-23.8-63C68,21.4,67.5,19.9,66.8,17.8z"/>
</svg>
